<svg width="512" height="134" viewBox="0 0 512 134" fill="none" xmlns="http://www.w3.org/2000/svg">
    <g opacity="0.5" filter="url(#filter0_f)">
        <path fill-rule="evenodd" clip-rule="evenodd"
            d="M417.584 10.0379C416.658 9.8616 415.726 10.3122 415.288 11.1473C414.59 12.4808 415.21 14.1249 416.615 14.6651L421.455 16.5259C422.555 16.9491 423.791 16.4023 424.219 15.3029L425.098 13.0406C425.394 12.2789 424.926 11.4354 424.123 11.2826L417.584 10.0379ZM428.866 18.9357C427.527 18.7489 426.783 17.3057 427.388 16.096L428.596 13.6791C428.944 12.9835 429.66 12.5526 430.437 12.5753C432.927 12.6481 438.56 12.8194 442.642 12.9935C443.204 13.0175 443.631 13.4987 443.559 14.0563C443.311 15.9976 442.566 20.0388 440.667 20.0388C437.337 20.0388 432.052 19.3801 428.866 18.9357Z"
            fill="url(#paint0_linear)" />
    </g>
    <path
        d="M274.5 42.9C272.4 39.1 269.4 38.3 267.3 38.3C265.3 38.3 263.8 39 262.8 40.3C261.8 41.5 261.4 43.1 261.4 45C261.4 46.7 261.7 48.3 262.3 49.8C262.9 51.2 263.7 52.9 264.9 54.9C266.2 57.2 267.2 59.2 267.9 61C268.5 62.7 268.9 64.7 268.9 67C268.9 70 268.3 72.9 267.3 75.5C266.3 78.1 264.8 80.1 262.8 81.7C260.9 83.2 258.7 83.9 256.2 83.9C253.2 83.9 250.9 83.2 249.3 82C247.8 80.8 246.6 79.1 245.7 77C246.2 76.3 246.8 75.3 247.7 73.8C249.4 71 250.9 67.8 252.2 64.4C253.5 60.8 254.2 57.3 254.2 53.9C254.2 51.7 253.9 49.5 253.4 47.2C252.8 44.8 251.8 42.8 250.3 41.1C248.7 39.2 246.5 38.2 243.8 38.2C240.8 38.2 238.1 39.3 236 41.4C233.9 43.4 232.4 46.1 231.4 49.4C230.4 52.6 229.9 56.1 229.9 60C229.9 61.8 230.2 64 230.8 66.6C231.4 69.1 232.1 71.4 232.8 73.4C233.3 74.9 233.7 76 233.9 76.7C233.7 77.1 233.2 77.8 231.9 79.1C230.5 80.5 228.8 81.8 226.9 82.9C225.1 83.9 223.5 84.5 222.1 84.5C220.1 84.5 218.6 83.9 217.3 82.8C216 81.5 215 79.9 214.3 78.1C213.7 76.1 213.4 74.3 213.4 72.6C213.4 70.1 213.8 67.5 214.5 64.9C215.3 62.2 216.4 59 217.9 55.3C219.4 51.2 220.5 48.2 220.9 46.4C221 46.1 221.1 45.6 221.3 45.1C221.6 44.3 221.7 43.5 221.7 42.8C221.7 42 221.4 39.5 217.8 39.5H200.5C198.5 39.5 196.5 40 194.8 41C193 42 191.5 43.4 190.4 45.1C189.3 46.8 188.7 48.7 188.7 50.8C188.7 52 189 53.2 189.6 54.4C190.2 55.5 190.9 56.5 191.9 57.3C193 58.1 194.2 58.5 195.4 58.5C196.9 58.5 197.9 57.8 198.4 57.2C199.1 56.4 199.4 55.4 199.4 54.2C199.4 53.5 199.2 52.8 198.6 51.6C198.1 50.6 197.8 49.7 197.8 49C197.8 48.9 197.8 48.9 197.9 48.8C198.1 48.7 198.3 48.5 198.5 48.5H211.3C211.1 48.9 210.8 49.5 210.4 50.2C208 54.4 206 58.7 204.3 62.8C202.6 67 201.7 71.5 201.7 76C201.7 79.6 202.5 82.9 204.1 85.8C205.7 88.6 207.9 90.9 210.6 92.5C213.4 94.1 216.4 94.9 219.6 94.9C223.2 94.9 226.7 93.8 230.2 91.5C233.1 89.6 235.8 87.5 238.2 85.1C239 86.2 239.7 87.1 240.5 88C241.7 89.4 243.5 90.8 246 92.5C248.6 94.1 251.6 95 254.9 95C259.6 95 263.9 93.1 267.5 89.4C271 85.8 273.8 81.2 275.8 75.7C277.7 70.3 278.7 64.9 278.7 59.6C278.7 57.8 278.4 55.3 277.8 52.2C277.2 48.6 276.1 45.6 274.5 42.9ZM247.1 53.6C247.1 56.9 246.5 60.2 245.2 63.3C244.4 65.3 243.5 67.1 242.5 68.7L242.4 68.5V68.9C242.3 69 242.3 69.1 242.2 69.2C240.6 64.3 239.8 59.7 239.8 55.5C239.8 53 240.2 50.9 240.9 49.3C241.5 47.9 242.5 47.3 243.9 47.3C244.8 47.3 247.1 47.3 247.1 53.6Z"
        fill="#070056" />
    <path
        d="M325.9 40.9C322.5 39.2 318.7 38.3 314.9 38.3C310 38.3 305.2 39.7 300.7 42.3C296.2 44.9 292.5 48.7 289.7 53.6C286.9 58.5 285.5 64.1 285.5 70.5C285.5 75.7 286.6 80.2 288.7 83.8C290.9 87.4 293.8 90.2 297.3 92C300.8 93.7 304.5 94.6 308.5 94.6C314.1 94.6 319.2 93.1 323.7 90C328.1 86.9 331.6 82.9 334 77.9C336.4 72.9 337.7 67.6 337.7 62.1C337.7 56.9 336.6 52.5 334.4 48.9C332.2 45.3 329.3 42.6 325.9 40.9ZM324.5 61.2C324.5 66.7 323.6 71.3 321.9 75.1C320.3 78.8 318.1 81.6 315.6 83.4C313.1 85.2 310.5 86.1 308 86.1C306.2 86.1 304.7 85.6 303.2 84.6C301.8 83.5 300.6 81.8 299.7 79.6C298.8 77.3 298.3 74.4 298.3 70.9C298.3 66.1 299.2 61.8 301 58.2C302.8 54.6 305.1 51.8 307.8 49.8C310.5 47.9 313.1 46.9 315.7 46.9C318.2 46.9 320.3 48 321.9 50.3C323.6 52.6 324.5 56.3 324.5 61.2Z"
        fill="#070056" />
    <path
        d="M383.2 40.9C379.8 39.2 376 38.3 372.2 38.3C367.3 38.3 362.5 39.7 358 42.3C353.5 44.9 349.8 48.7 347 53.6C344.2 58.5 342.8 64.1 342.8 70.5C342.8 75.7 343.9 80.2 346 83.8C348.2 87.4 351.1 90.2 354.6 92C358.1 93.7 361.8 94.6 365.8 94.6C371.4 94.6 376.5 93.1 381 90C385.4 86.9 388.9 82.9 391.3 77.9C393.7 72.9 395 67.6 395 62.1C395 56.9 393.9 52.5 391.7 48.9C389.5 45.3 386.6 42.6 383.2 40.9ZM379.2 50.3C380.9 52.6 381.8 56.3 381.8 61.2C381.8 66.7 380.9 71.3 379.2 75.1C377.6 78.8 375.4 81.6 372.9 83.4C370.4 85.2 367.8 86.1 365.3 86.1C363.5 86.1 362 85.6 360.5 84.6C359.1 83.5 357.9 81.8 357 79.6C356.1 77.3 355.6 74.4 355.6 70.9C355.6 66.1 356.5 61.8 358.3 58.2C360.1 54.6 362.4 51.8 365.1 49.8C367.8 47.9 370.4 46.9 373 46.9C375.5 46.9 377.5 48 379.2 50.3Z"
        fill="#070056" />
    <path
        d="M429.6 39.9C423.9 37.8 418.2 37.9 412.9 39.5C410.2 40.4 408 41.8 406.2 43.7C404.3 45.7 403.4 48.3 403.4 51.3C403.4 54 404 56.5 405.2 58.7C406.4 60.8 407.8 62.6 409.4 64.1C411 65.5 413.1 67.1 415.7 69C418 70.6 419.8 72 421.1 73.2C422.3 74.3 423.4 75.5 424.2 77C425 78.3 425.4 79.8 425.4 81.5C425.4 83.9 424.9 85 424.5 85.5C423.9 86.2 423.1 86.5 422.1 86.5C417.4 86.3 413.9 85.2 411.5 83.3C409 81.2 407.3 79.5 406.4 78.1C404.8 75.4 404.6 75 403.6 75C397.8 75 396.9 78.7 396.9 80.9C396.9 84 398.2 86.7 400.8 88.9C403.2 90.9 406.2 92.3 409.6 93.3C413 94.2 416.2 94.7 419.3 94.7C424 94.7 428.1 93.6 431.3 91.5C434.8 89.2 436.5 85.7 436.5 80.9C436.5 77.6 435.8 74.6 434.4 72.1C433 69.6 431.3 67.5 429.4 65.8C427.6 64.2 425.2 62.3 422.2 60.2C420.1 58.7 418.5 57.5 417.3 56.6C416.2 55.7 415.4 54.7 414.7 53.7C414.1 52.8 413.8 51.8 413.8 50.7C413.8 46 415.9 46 416.9 46C418.6 46 420.2 46.3 421.5 46.9C422.9 47.5 424.1 48.3 425.1 49.2C426.2 50.1 427.4 51.3 428.7 52.8C430.1 54.3 431.2 55.4 432.1 56.1C433.2 56.9 434.4 57.3 435.6 57.3C436.8 57.3 437.9 56.9 438.8 56.1C439.7 55.3 440.2 54.2 440.2 53C440.2 49.9 439.1 47.1 437.1 44.8C435 42.7 432.5 41 429.6 39.9Z"
        fill="#070056" />
    <path
        d="M510 73.5C509.668 73.1762 509.214 72.9184 508.728 72.7145C507.009 71.9937 505.148 72.9584 504.1 74.5C502.3 77.2 500.7 79.3 499.6 80.8C498.5 82.1 497.5 83.3 496.3 84.1C495.4 84.8 494.5 85.2 493.7 85.2C493.4 85.2 492.7 85.2 492.7 82.8C492.7 81 493 79 493.6 76.9C494.3 74.7 495.4 71.7 496.8 67.9C498.4 63.9 499.6 60.4 500.4 57.7C501.3 54.8 501.8 52 501.8 49.3C501.8 46.4 500.8 43.8 499 41.7C497.1 39.5 494.2 38.4 490.4 38.4C486.2 38.4 482 40.3 477.8 44.1C473.8 47.7 470.2 51.8 467.1 56.3C464.5 60.1 461.7 64.4 458.8 69.2L472.8 16.5C473.3 14.4 473.6 12.7 473.6 11.3C473.6 10 473.4 9.19999 472.8 8.69999C472.2 8.19999 471.4 7.89999 470.2 7.89999C469.7 7.89999 469.2 7.89999 468.9 7.99999L451.4 10.1C450.2 10.3 449.6 11.5 449.2 12.7C448.7 13.9 448.5 14.9 448.5 15.6C448.5 16.3 448.8 16.9 449.3 17.3L449.4 17.4C449.9 17.7 450.5 17.8 451.5 17.8H457.39C458.706 17.8 459.663 19.0494 459.321 20.3203L443 80.9C442.6 82.3 442.3 83.4 442.1 84.4C441.9 85.3 441.8 86.3 441.8 87.2C441.8 89.5 442.4 91.3 443.5 92.7C444.7 94 446.2 94.6 448 94.6C449.3 94.6 450.6 94.2 451.9 93.5C453.2 92.8 454.3 91.7 455.2 90.4C461.2 81.4 464.9 75.7 466.2 73.6L466.9 72.6C470.9 66.2 475 60.3 479.1 55.2C483.8 49.2 486.8 48 488.5 48C489.1 48 489.3 48.2 489.5 48.4C489.8 48.8 489.9 49.2 489.9 49.7C489.9 50.6 489.6 51.9 489.1 53.4C488.5 55 487.6 57.4 486.4 60.3C484.4 65.1 482.8 69.3 481.7 73C480.6 76.7 480 80.4 480 83.9C480 87.1 480.8 89.6 482.4 91.6C484.1 93.6 486.4 94.7 489.4 94.7C492.1 94.7 494.6 94.1 496.8 92.9C498.9 91.7 501 90.1 502.9 88C504.8 86 507 83.2 509.5 79.8C510.834 77.9575 511.646 75.3698 510.149 73.6574C510.1 73.6021 510.051 73.5495 510 73.5Z"
        fill="url(#paint1_linear)" />
    <path
        d="M170.1 10.1C172 8 174.2 6.9 176.7 6.9C178.4 6.9 179.8 7.4 180.8 8.5C181.8 9.5 182.8 11 183.9 13C185 14.9 185.9 16.3 186.8 17.3C187.7 18.2 189 18.7 190.5 18.7C192.5 18.7 194.2 18.1 195.4 17C196.7 15.8 197.3 14.4 197.3 12.8C197.3 9.7 196.5 7.2 194.8 5.3C193.2 3.4 191.2 2 188.8 1.2C186.5 0.399997 184.2 0 181.9 0C174 0 167.9 2.5 163.4 7.6C158.9 12.6 155.7 19.8 153.7 29.2L151.4 40.2H135.743C134.982 40.2 134.287 40.6323 133.95 41.3151L131.512 46.2576C131.184 46.9221 131.667 47.7 132.408 47.7H149.7L141 84.6C138 97.7 135.1 108.2 132.4 116.1C130.41 121.715 128.672 126.067 127.116 129.12C126.268 130.783 126.868 133.004 128.726 133.18C133.936 133.675 138.323 129.523 141.8 124.7C145 120.4 147.4 115.5 149 110.2C150.7 104.8 152.6 97.6 154.6 88.5C155 86.7 155.6 83.9 156.5 80.1L163.835 49.2376C164.049 48.3362 164.854 47.7 165.78 47.7H182.868C183.57 47.7 184.221 47.3314 184.583 46.729L186.683 43.229C187.482 41.8959 186.522 40.2 184.968 40.2H167.923C166.651 40.2 165.503 39.4015 165.166 38.1749C164.389 35.3443 164 32.3193 164 29.1C164 25.3 164.5 21.8 165.6 18.4C166.6 14.9 168.1 12.2 170.1 10.1Z"
        fill="#070056" />
    <g opacity="0.4" filter="url(#filter1_f)">
        <path fill-rule="evenodd" clip-rule="evenodd"
            d="M49 44H10C7.8 44 6 45.8 6 48C6 50.2 7.8 52 10 52H49C51.2 52 53 50.2 53 48C53 45.8 51.2 44 49 44ZM85 44H65C62.8 44 61 45.8 61 48C61 50.2 62.8 52 65 52H85C87.2 52 89 50.2 89 48C89 45.8 87.2 44 85 44ZM40 65H61C63.2 65 65 66.8 65 69C65 71.2 63.2 73 61 73H40C37.8 73 36 71.2 36 69C36 66.8 37.8 65 40 65ZM98 86H70C67.8 86 66 87.8 66 90C66 92.2 67.8 94 70 94H98C100.2 94 102 92.2 102 90C102 87.8 100.2 86 98 86ZM21 86H41C43.2 86 45 87.8 45 90C45 92.2 43.2 94 41 94H21C18.8 94 17 92.2 17 90C17 87.8 18.8 86 21 86ZM121 65H77C74.8 65 73 66.8 73 69C73 71.2 74.8 73 77 73H121C123.2 73 125 71.2 125 69C125 66.8 123.2 65 121 65ZM102 44C104.2 44 106 45.8 106 48C106 50.2 104.2 52 102 52C99.8 52 98 50.2 98 48C98 45.8 99.8 44 102 44ZM61 90C61 87.8 59.2 86 57 86C54.8 86 53 87.8 53 90C53 92.2 54.8 94 57 94C59.2 94 61 92.2 61 90Z"
            fill="url(#paint2_linear)" />
    </g>
    <path fill-rule="evenodd" clip-rule="evenodd"
        d="M53 39H14C11.8 39 10 40.8 10 43C10 45.2 11.8 47 14 47H53C55.2 47 57 45.2 57 43C57 40.8 55.2 39 53 39ZM89 39H69C66.8 39 65 40.8 65 43C65 45.2 66.8 47 69 47H89C91.2 47 93 45.2 93 43C93 40.8 91.2 39 89 39ZM44 60H65C67.2 60 69 61.8 69 64C69 66.2 67.2 68 65 68H44C41.8 68 40 66.2 40 64C40 61.8 41.8 60 44 60ZM102 81H74C71.8 81 70 82.8 70 85C70 87.2 71.8 89 74 89H102C104.2 89 106 87.2 106 85C106 82.8 104.2 81 102 81ZM25 81H45C47.2 81 49 82.8 49 85C49 87.2 47.2 89 45 89H25C22.8 89 21 87.2 21 85C21 82.8 22.8 81 25 81ZM125 60H81C78.8 60 77 61.8 77 64C77 66.2 78.8 68 81 68H125C127.2 68 129 66.2 129 64C129 61.8 127.2 60 125 60ZM106 39C108.2 39 110 40.8 110 43C110 45.2 108.2 47 106 47C103.8 47 102 45.2 102 43C102 40.8 103.8 39 106 39ZM65 85C65 82.8 63.2 81 61 81C58.8 81 57 82.8 57 85C57 87.2 58.8 89 61 89C63.2 89 65 87.2 65 85Z"
        fill="url(#paint3_linear)" />
    <path fill-rule="evenodd" clip-rule="evenodd"
        d="M419.918 6.99904C418.991 6.82275 418.059 7.27331 417.622 8.10848C416.923 9.44192 417.544 11.0861 418.948 11.6262L423.788 13.487C424.889 13.9103 426.125 13.3635 426.552 12.2641L427.431 10.0017C427.727 9.24005 427.26 8.39659 426.457 8.2438L419.918 6.99904ZM431.2 15.8969C429.86 15.71 429.117 14.2668 429.721 13.0572L430.93 10.6402C431.278 9.9447 431.993 9.51374 432.771 9.53645C435.26 9.60923 440.893 9.78052 444.976 9.95467C445.537 9.97863 445.964 10.4598 445.893 11.0175C445.644 12.9588 444.9 17 443 17C439.67 17 434.386 16.3413 431.2 15.8969Z"
        fill="url(#paint4_linear)" />
    <defs>
        <filter id="filter0_f" x="409" y="4" width="40.567" height="22.0388" filterUnits="userSpaceOnUse"
            color-interpolation-filters="sRGB">
            <feFlood flood-opacity="0" result="BackgroundImageFix" />
            <feBlend mode="normal" in="SourceGraphic" in2="BackgroundImageFix" result="shape" />
            <feGaussianBlur stdDeviation="3" result="effect1_foregroundBlur" />
        </filter>
        <filter id="filter1_f" x="0" y="38" width="131" height="62" filterUnits="userSpaceOnUse"
            color-interpolation-filters="sRGB">
            <feFlood flood-opacity="0" result="BackgroundImageFix" />
            <feBlend mode="normal" in="SourceGraphic" in2="BackgroundImageFix" result="shape" />
            <feGaussianBlur stdDeviation="3" result="effect1_foregroundBlur" />
        </filter>
        <linearGradient id="paint0_linear" x1="408.44" y1="10.1249" x2="447.848" y2="21.5637"
            gradientUnits="userSpaceOnUse">
            <stop stop-color="#2960E1" />
            <stop offset="1" stop-color="#9800A6" />
        </linearGradient>
        <linearGradient id="paint1_linear" x1="466.5" y1="4.49999" x2="452.5" y2="59" gradientUnits="userSpaceOnUse">
            <stop offset="0.104167" stop-color="#9801A7" />
            <stop offset="1" stop-color="#070056" />
        </linearGradient>
        <linearGradient id="paint2_linear" x1="132" y1="69" x2="9.5" y2="40.5" gradientUnits="userSpaceOnUse">
            <stop offset="0.272436" stop-color="#4136C4" />
            <stop offset="0.55346" stop-color="#8E0BB1" />
            <stop offset="1" stop-color="#037FF2" />
        </linearGradient>
        <linearGradient id="paint3_linear" x1="136" y1="64" x2="13.5" y2="35.5" gradientUnits="userSpaceOnUse">
            <stop offset="0.272436" stop-color="#4136C4" />
            <stop offset="0.55346" stop-color="#8E0BB1" />
            <stop offset="1" stop-color="#037FF2" />
        </linearGradient>
        <linearGradient id="paint4_linear" x1="410.774" y1="7.08608" x2="450.181" y2="18.5249"
            gradientUnits="userSpaceOnUse">
            <stop stop-color="#2960E1" />
            <stop offset="1" stop-color="#9800A6" />
        </linearGradient>
    </defs>
</svg>